<?xml version="1.0" encoding="UTF-8"?><svg xmlns="http://www.w3.org/2000/svg" viewBox="0 0 53 53"><defs><style>.d{fill:#fff;}.e{fill:#1e0050;}</style></defs><g id="a"/><g id="b"><g id="c"><g><circle class="e" cx="26.5" cy="26.5" r="26.5"/><path class="d" d="M26.49975,18.50001c-4.39966,0-7.99976,3.59985-7.99976,7.99976s3.6001,8.00024,7.99976,8.00024c4.40015,0,8-3.60034,8-8.00024s-3.59985-7.99976-8-7.99976Z"/><path class="d" d="M46.49975,25.5066h-4.70142c-.49512-7.66602-6.63916-13.81006-14.30542-14.30518V6.49977c0-.54883-.44434-.99316-.99316-.99316s-.99316,.44434-.99316,.99316v4.70166c-7.66602,.49536-13.80981,6.63916-14.30493,14.30518H6.49975c-.54883,0-.99316,.44434-.99316,.99316s.44434,.99316,.99316,.99316h4.7019c.49536,7.6665,6.63892,13.8103,14.30493,14.30566v4.70117c0,.54883,.44434,.99316,.99316,.99316s.99316-.44434,.99316-.99316v-4.70117c7.66626-.49512,13.81006-6.63892,14.30542-14.30566h4.70142c.54883,0,.99316-.44434,.99316-.99316s-.44434-.99316-.99316-.99316Zm-20,14.63672c-7.50366,0-13.64307-6.14014-13.64307-13.64355,0-7.50391,6.1394-13.64307,13.64307-13.64307s13.64355,6.13916,13.64355,13.64307c0,7.50342-6.13965,13.64355-13.64355,13.64355Z"/></g></g></g></svg>