<?xml version="1.0" encoding="UTF-8"?><svg xmlns="http://www.w3.org/2000/svg" viewBox="0 0 53 53"><defs><style>.d{fill:#fff;}.e{fill:red;}</style></defs><g id="a"/><g id="b"><g id="c"><g><path class="e" d="M26.49996,53c-7.0662,0-13.69141-2.73828-18.7261-7.77296C2.73829,40.19139,0,33.56706,0,26.5S2.73829,12.80861,7.77385,7.77305C12.80855,2.73828,19.43376,0,26.49996,0c7.06708,0,13.69237,2.73828,18.72707,7.77305,5.0347,5.03556,7.77298,11.65988,7.77298,18.72695s-2.73828,13.69139-7.77298,18.72704c-5.0347,5.03469-11.65999,7.77296-18.72707,7.77296Z"/><path class="d" d="M43.20729,16.90064c-.26147-.12891-.58862-.12891-.84985,.0647l-6.01611,4.61963v-4.74902c0-.45239-.39233-.84009-.8501-.84009H13.71632c-2.41968,0-4.38135,1.93921-4.38135,4.33105v12.34619c0,2.39185,1.96167,4.33105,4.38135,4.33105h21.7749c.45776,0,.8501-.38794,.8501-.77588v-4.86621l6.01611,4.67236c.1958,.12939,.32666,.19385,.52295,.19385,.06543,0,.19629-.06445,.3269-.12891,.26172-.12939,.45776-.38794,.45776-.71118V17.61183c0-.32324-.19604-.58179-.45776-.71118Zm-8.50073,18.48755H13.71632c-1.50391,0-2.74658-1.22827-2.74658-2.71509v-12.34619c0-1.48706,1.24268-2.71509,2.74658-2.71509h20.99023v17.77637Zm7.38916-1.68091l-5.75439-4.39526v-5.62402l5.75439-4.39551v14.41479Z"/></g></g></g></svg>