<?xml version="1.0" encoding="UTF-8"?><svg xmlns="http://www.w3.org/2000/svg" viewBox="0 0 25.25453 21.9756"><defs><style>.d{fill:none;stroke:#fff;stroke-miterlimit:10;stroke-width:1.9756px;}</style></defs><g id="a"/><g id="b"><g id="c"><g><path class="d" d="M23.95433,4.71836H1.3002c-.17269,0-.3124-.1538-.3124-.34393,0-.19009,.1397-.34393,.3124-.34393H23.95433c.17266,0,.3124,.15384,.3124,.34393,0,.19012-.13973,.34393-.3124,.34393Z"/><path class="d" d="M23.95433,11.3277H1.3002c-.17269,0-.3124-.1538-.3124-.34393,0-.19009,.1397-.34393,.3124-.34393H23.95433c.17266,0,.3124,.15384,.3124,.34393,0,.19012-.13973,.34393-.3124,.34393Z"/><path class="d" d="M23.95433,17.93704H1.3002c-.17269,0-.3124-.1538-.3124-.34393,0-.19009,.1397-.34393,.3124-.34393H23.95433c.17266,0,.3124,.15384,.3124,.34393,0,.19012-.13973,.34393-.3124,.34393Z"/><path class="d" d="M7.23994,7.78038c-.17269,0-.3124-.15384-.3124-.34393V1.33173c0-.19009,.1397-.34393,.3124-.34393,.17266,0,.3124,.15384,.3124,.34393V7.43645c0,.19009-.13973,.34393-.3124,.34393Z"/><path class="d" d="M7.23994,20.9878c-.17269,0-.3124-.15384-.3124-.34393v-6.10472c0-.19009,.1397-.34393,.3124-.34393,.17266,0,.3124,.15384,.3124,.34393v6.10472c0,.19009-.13973,.34393-.3124,.34393Z"/><path class="d" d="M17.94596,14.48977c-.17269,0-.3124-.15384-.3124-.34393v-6.10472c0-.19009,.1397-.34393,.3124-.34393,.17266,0,.3124,.15384,.3124,.34393v6.10472c0,.19009-.13973,.34393-.3124,.34393Z"/></g></g></g></svg>