<?xml version="1.0" encoding="UTF-8"?><svg xmlns="http://www.w3.org/2000/svg" viewBox="0 0 19.27895 22.88514"><defs><style>.d,.e{fill:none;stroke:#fff;stroke-miterlimit:10;stroke-width:1.88185px;}.e{stroke-linecap:round;}</style></defs><g id="a"/><g id="b"><g id="c"><g><path class="d" d="M11.91011,19.95736c0,1.0973-.88955,1.98685-1.98685,1.98685s-1.98685-.88955-1.98685-1.98685"/><path class="d" d="M14.66024,9.43953v-1.62253c0-2.49665-1.75934-4.72663-4.22606-5.1111-3.109-.48439-5.81547,1.93642-5.81547,4.95885v1.77477c0,.97555-.39538,1.90669-1.09034,2.59149-1.49851,1.47669-2.46672,3.48951-2.58716,5.73079-.00602,.11272,.08656,.2087,.19929,.2087H18.13827c.11291,0,.2055-.09597,.19948-.2087-.12063-2.24128-1.08884-4.2541-2.58735-5.73079-.69478-.6848-1.09015-1.61594-1.09015-2.59149Z"/><line class="e" x1="9.63947" y1="2.64399" x2="9.63947" y2=".94092"/></g></g></g></svg>