<?xml version="1.0" encoding="UTF-8"?><svg xmlns="http://www.w3.org/2000/svg" viewBox="0 0 26.58042 24.39758"><defs><style>.d{fill:#fff;}.e,.f{fill:none;stroke:#fff;stroke-miterlimit:10;stroke-width:1.88185px;}.f{stroke-linecap:round;}.g{fill:#984bff;}</style></defs><g id="a"/><g id="b"><g id="c"><g><g><path class="e" d="M11.91011,21.4698c0,1.0973-.88955,1.98685-1.98685,1.98685s-1.98685-.88955-1.98685-1.98685"/><path class="e" d="M14.66024,10.95197v-1.62253c0-2.49665-1.75934-4.72663-4.22606-5.1111-3.109-.48439-5.81547,1.93642-5.81547,4.95885v1.77477c0,.97555-.39538,1.90669-1.09034,2.59149-1.49851,1.47669-2.46672,3.48951-2.58716,5.73079-.00602,.11272,.08656,.2087,.19929,.2087H18.13827c.11291,0,.2055-.09597,.19948-.2087-.12063-2.24128-1.08884-4.2541-2.58735-5.73079-.69478-.6848-1.09015-1.61594-1.09015-2.59149Z"/><line class="f" x1="9.63947" y1="4.15643" x2="9.63947" y2="2.45336"/></g><g><circle class="g" cx="18.76643" cy="7.81399" r="7.81399"/><path class="d" d="M18.37549,5.15905h-1.00098v-1.33105h2.48633v7.51953h-1.48535V5.15905Z"/></g></g></g></g></svg>