<?xml version="1.0" encoding="UTF-8"?><svg xmlns="http://www.w3.org/2000/svg" viewBox="0 0 290.08522 6.39504"><defs><style>.d{fill:#efedf4;}.e{fill:#984bff;}</style></defs><g id="a"/><g id="b"><g id="c"><path class="d" d="M286.88779,6.39504H3.19742c-1.76577,0-3.19742-1.43165-3.19742-3.19762H0C0,1.43165,1.43165,0,3.19742,0H286.88779c1.76597,0,3.19742,1.43165,3.19742,3.19742h0c0,1.76597-1.43146,3.19762-3.19742,3.19762Z"/><path class="e" d="M69.04935,6.39504H3.19742c-1.76577,0-3.19742-1.43165-3.19742-3.19762H0C0,1.43165,1.43165,0,3.19742,0H69.04935c1.76597,0,3.19742,1.43165,3.19742,3.19742h0c0,1.76597-1.43146,3.19762-3.19742,3.19762Z"/></g></g></svg>