<?xml version="1.0" encoding="UTF-8"?><svg xmlns="http://www.w3.org/2000/svg" viewBox="0 0 66.52623 15"><defs><style>.d{fill:#fff;}</style></defs><g id="a"/><g id="b"><g id="c"><g><polygon class="d" points="0 3.70721 4.83351 3.70721 4.83351 3.70785 7.87946 3.70785 7.87946 3.70721 12.91669 3.70721 12.91669 .66126 0 .66126 0 3.70721"/><rect class="d" x="4.83351" y="5.83111" width="3.04594" height="9.16889"/><polygon class="d" points="24.73186 5.8545 18.13229 5.8545 18.13229 .68544 15.0864 .68544 15.0864 15 18.13229 15 18.13229 8.9006 24.73186 8.9006 24.73186 15 27.77775 15 27.77775 .68544 24.73186 .68544 24.73186 5.8545"/><polygon class="d" points="29.97739 1.23045 29.97739 3.70529 42.79129 3.70529 42.79129 .65935 29.97803 .65935 29.97739 1.23045"/><polygon class="d" points="33.02398 8.8745 41.51326 8.8745 41.51326 5.80954 29.97803 5.80954 29.97739 15 42.79129 15 42.79129 11.95406 33.02398 11.95406 33.02398 8.8745"/><rect class="d" x="45.43241" y=".63208" width="3.04594" height="14.36792"/><polygon class="d" points="49.92585 15 53.74663 15 57.01461 9.09468 55.09826 5.65466 49.92585 15"/><polygon class="d" points="58.21333 0 56.316 3.45465 56.30961 3.46605 62.70545 15 66.52623 15 58.21333 0"/></g></g></g></svg>